<svg xmlns="http://www.w3.org/2000/svg" viewBox="0 0 238 105"><defs><style>.cls-1{fill:#fff;}.cls-2{fill:none;stroke:#fff;stroke-miterlimit:10;stroke-width:4px;}</style></defs><title>logo</title><g id="Camada_2" data-name="Camada 2"><g id="Camada_1-2" data-name="Camada 1"><path class="cls-1" d="M80.21,14.66A14.42,14.42,0,0,1,90.63,19a14.47,14.47,0,0,1,4.42,10.74,15.43,15.43,0,0,1-4.22,10.92,13.66,13.66,0,0,1-10.37,4.5A14.07,14.07,0,0,1,70,40.7a14.7,14.7,0,0,1-4.32-10.6,16.23,16.23,0,0,1,1.22-6.28,14.54,14.54,0,0,1,3.24-4.92,15,15,0,0,1,4.66-3.11A13.73,13.73,0,0,1,80.21,14.66ZM72.84,29.9a7.71,7.71,0,0,0,2.33,5.84,7.19,7.19,0,0,0,10.39.06,7.67,7.67,0,0,0,2.31-5.86A7.75,7.75,0,0,0,85.54,24a7.38,7.38,0,0,0-5.21-2.23,7.26,7.26,0,0,0-5.18,2.25A7.77,7.77,0,0,0,72.84,29.9Z"/><path class="cls-1" d="M122.72,88l.19-.1.34-.2Zm-2.44-6.88,1.2-.69q-.39.18-.9.48Z"/><path class="cls-1" d="M125.45,82.69l1.61,2.78-3.39,2-.07,0-.35.21-.53.3-.23.12a21.5,21.5,0,0,1-2.31.83l-.09,0a13.43,13.43,0,0,1-3.91.62,15.46,15.46,0,0,1-3.89-.51,16.35,16.35,0,0,1-4.05-1.69,17.14,17.14,0,0,1-3.75-2.91,13.52,13.52,0,0,1-2.74-4.41,15.5,15.5,0,0,1,0-11.32,13.52,13.52,0,0,1,2.74-4.41,17.14,17.14,0,0,1,3.75-2.91,16.35,16.35,0,0,1,4.05-1.69,15.46,15.46,0,0,1,3.89-.51,13.43,13.43,0,0,1,3.91.62l.09,0a21.5,21.5,0,0,1,2.31.83l.23.12.53.3.35.21.07,0,3.39,2-1.61,2.78-2,3.43-2-1.14h0l-1.2-.69-.43-.31a3.81,3.81,0,0,0-.73-.36,8,8,0,0,0-.87-.29,8.28,8.28,0,0,0-2.37-.32,8.69,8.69,0,0,0-5.15,1.78,6.91,6.91,0,0,0-2.06,2.54,8.58,8.58,0,0,0,0,7.32,6.91,6.91,0,0,0,2.06,2.54,8.69,8.69,0,0,0,5.15,1.78,8.28,8.28,0,0,0,2.37-.32,8,8,0,0,0,.87-.29,3.81,3.81,0,0,0,.73-.36l.43-.31,1.2-.69h0l2-1.14Z"/><path class="cls-1" d="M208.17,59.17A14.94,14.94,0,0,1,223,74.23a15.4,15.4,0,0,1-4.22,10.92,13.62,13.62,0,0,1-10.37,4.51,14,14,0,0,1-10.48-4.45,14.65,14.65,0,0,1-4.31-10.59,16.28,16.28,0,0,1,1.21-6.29,14.6,14.6,0,0,1,3.24-4.91,15.16,15.16,0,0,1,4.66-3.11A13.58,13.58,0,0,1,208.17,59.17Zm-7.38,15.25a7.76,7.76,0,0,0,2.33,5.84,7.31,7.31,0,0,0,5.21,2.24,7.39,7.39,0,0,0,5.19-2.18,7.69,7.69,0,0,0,2.31-5.86,7.82,7.82,0,0,0-2.33-5.91,7.39,7.39,0,0,0-5.21-2.22,7.29,7.29,0,0,0-5.19,2.24A7.8,7.8,0,0,0,200.79,74.42Z"/><path class="cls-1" d="M62.58,21a9.37,9.37,0,0,0-2.71-3.4A11.26,11.26,0,0,0,52.94,15H40.66v29.6h7.17V36.49H52.9a11.3,11.3,0,0,0,7-2.59,9.35,9.35,0,0,0,2.71-3.37,10.59,10.59,0,0,0,1.06-4.75A10.65,10.65,0,0,0,62.58,21Zm-7.25,7.43a3.9,3.9,0,0,1-2.39.89H47.83V22.18H52.9a3.93,3.93,0,0,1,2.43.91,3.19,3.19,0,0,1,1.17,2.69A3.13,3.13,0,0,1,55.33,28.44Z"/><path class="cls-1" d="M118.56,44.31l3.24-1.37-1.12-2.62c-.07-.21-.16-.43-.26-.68-.19-.41-.36-.81-.53-1.19l-2.2-5.18a10,10,0,0,0,3-7.49,10.64,10.64,0,0,0-1-4.77,9.63,9.63,0,0,0-2.68-3.4A11.22,11.22,0,0,0,110,15H97.68V44.66h7.18V36.49H110l1.26-.08c1.07,2.54,1.86,4.41,2.4,5.64l1.57,3.69,3.26-1.38.06,0Zm-13.7-15V22.18H110a3.89,3.89,0,0,1,2.43.91,3.17,3.17,0,0,1,1.18,2.69,3.11,3.11,0,0,1-1.18,2.66,3.82,3.82,0,0,1-2.35.89Z"/><path class="cls-1" d="M100.23,87.5l-1-2.47c-.09-.27-.2-.55-.33-.87-.38-.84-.72-1.62-1-2.34l-1.71-4a10.07,10.07,0,0,0,3-7.51,10.7,10.7,0,0,0-1-4.77,9.51,9.51,0,0,0-2.68-3.39,11.22,11.22,0,0,0-6.93-2.59H79.73a8,8,0,0,0-.88,0H76.12V89.21h7.17V81H88.4l1.25-.08,4,9.37ZM83.29,73.85V66.7H88.4a3.94,3.94,0,0,1,2.43.9A3.19,3.19,0,0,1,92,70.29,3.12,3.12,0,0,1,90.83,73a3.9,3.9,0,0,1-2.35.89Z"/><path class="cls-1" d="M182.35,87.54l-1-2.33c-.1-.31-.22-.65-.39-1-.64-1.44-1.19-2.7-1.66-3.78l-1.09-2.57a10,10,0,0,0,3-7.52,10.7,10.7,0,0,0-1.05-4.77,9.38,9.38,0,0,0-2.67-3.39,11.26,11.26,0,0,0-6.94-2.59h-8.75a9.27,9.27,0,0,0-1.25.08h-2.36V89.26h7.18V81h5.1l1.23-.08,4,9.41ZM165.41,73.85V66.7h5.1a4,4,0,0,1,2.44.9,3.21,3.21,0,0,1,1.17,2.69A3.13,3.13,0,0,1,173,73a3.93,3.93,0,0,1-2.36.89Z"/><path class="cls-1" d="M173.44,40.05,163,18.56,161.32,15h-4.5l-.92,1.9-.1.17-10.94,22.6c-.12.23-.22.44-.3.64v0l-2.08,4.31h7.92l.73-1.5,0-.06.19-.38,2.11-4.37h11.23l2.1,4.37c.19.37.34.68.48.92l0,.06.46,1h7.93Zm-17.07-7.68L159,26.83l2.72,5.54Z"/><polygon class="cls-1" points="146.12 14.98 138.87 14.98 123.58 14.98 120.62 14.98 120.62 20.84 123.54 20.84 131.32 20.84 131.32 40.15 131.32 41.14 131.32 44.66 138.33 44.66 138.33 41.18 138.33 40.15 138.33 20.84 146.07 20.84 149.03 20.84 149.03 14.98 146.12 14.98"/><polygon class="cls-1" points="194.39 38.67 183.36 38.67 183.36 18.62 183.36 15.02 176.19 15.02 176.19 18.58 176.19 23.25 176.19 41.06 176.19 44.66 179.75 44.66 194.34 44.66 197.34 44.66 197.34 38.67 194.39 38.67"/><polygon class="cls-1" points="15 73.5 15 89.17 22.13 89.17 22.13 71.99 31.01 82.58 39.85 71.99 39.85 89.13 47.02 89.13 47.02 59.58 39.85 59.58 30.97 72.68 22.13 59.58 15 59.58 15 73.5"/><path class="cls-1" d="M71.12,59.58c-.3,0-.7,0-1.2,0H54a8,8,0,0,0-.87,0H50.26V89.13H53a6.86,6.86,0,0,0,.81,0h16a9.62,9.62,0,0,0,1,0h2.63V82h-16v-4H69V70.78H57.44V66.7h16V59.58Z"/><path class="cls-1" d="M188.59,59.62a8.32,8.32,0,0,0-1.18-.08,9.12,9.12,0,0,0-1.24.08h-2.36V89.17H191V59.62Z"/><path class="cls-1" d="M147.78,59.5v7.69h0v8a8.91,8.91,0,0,1-1.46,5,5,5,0,0,1-4.42,2.18,5.74,5.74,0,0,1-2.88-.69A4.43,4.43,0,0,1,137.24,80,9.62,9.62,0,0,1,136,75.26V59.5h-7.21V75.26A15.54,15.54,0,0,0,132.09,85a11.72,11.72,0,0,0,4.11,3.39,12.14,12.14,0,0,0,5.64,1.3,12.57,12.57,0,0,0,5.65-1.27,12.17,12.17,0,0,0,4.18-3.34,15.66,15.66,0,0,0,3.32-9.7V59.5Z"/><path class="cls-1" d="M139,58.57l11.27-3.49-.89-2.9h0l-.86-2.77-1.47.46c-.2,0-.48.11-.83.21l-6.69,2.06a4.66,4.66,0,0,0-.7.27l-1.59.49Z"/><path class="cls-1" d="M120.28,81.1l-.43.31a3.81,3.81,0,0,1-.73.36Z"/><path class="cls-1" d="M122.91,60.92l-.19-.1.53.3Zm-2.33,7q.51.3.9.48l-1.2-.69Z"/><path class="cls-1" d="M120.28,67.7,119.12,67a3.81,3.81,0,0,1,.73.36Z"/><rect class="cls-2" x="2" y="2" width="234" height="101"/></g></g></svg>